# This file uses centimeters as units for non-parametric coordinates.

mtllib charging placeholder.mtl
g default
v -7.500000 0.500000 -4.500000
v -5.500000 0.500000 -4.500000
v -7.500000 1.000000 -4.500000
v -5.500000 1.000000 -4.500000
v -7.500000 1.000000 -6.500000
v -5.500000 1.000000 -6.500000
v -7.500000 0.500000 -6.500000
v -5.500000 0.500000 -6.500000
v -7.750000 0.500000 -4.250000
v -5.250000 0.500000 -4.250000
v -5.250000 1.100000 -4.250000
v -7.750000 1.100000 -4.250000
v -7.750000 1.100000 -6.750000
v -5.250000 1.100000 -6.750000
v -5.250000 0.500000 -6.750000
v -7.750000 0.500000 -6.750000
v -9.000000 0.500000 -3.000000
v -4.000000 0.500000 -3.000000
v -4.000000 0.500000 -3.000000
v -9.000000 0.500000 -3.000000
v -9.000000 0.500000 -8.000000
v -4.000000 0.500000 -8.000000
v -4.000000 0.500000 -8.000000
v -9.000000 0.500000 -8.000000
vt 0.375000 0.000000
vt 0.625000 0.000000
vt 0.375000 0.250000
vt 0.625000 0.250000
vt 0.375000 0.500000
vt 0.625000 0.500000
vt 0.375000 0.750000
vt 0.625000 0.750000
vt 0.375000 1.000000
vt 0.625000 1.000000
vt 0.875000 0.000000
vt 0.875000 0.250000
vt 0.125000 0.000000
vt 0.125000 0.250000
vt 0.375000 0.000000
vt 0.625000 0.000000
vt 0.625000 0.250000
vt 0.375000 0.250000
vt 0.375000 0.500000
vt 0.625000 0.500000
vt 0.625000 0.750000
vt 0.375000 0.750000
vt 0.875000 0.000000
vt 0.875000 0.250000
vt 0.125000 0.000000
vt 0.125000 0.250000
vt 0.375000 0.000000
vt 0.625000 0.000000
vt 0.625000 0.250000
vt 0.375000 0.250000
vt 0.375000 0.500000
vt 0.625000 0.500000
vt 0.625000 0.750000
vt 0.375000 0.750000
vt 0.875000 0.000000
vt 0.875000 0.250000
vt 0.125000 0.000000
vt 0.125000 0.250000
vn 0.000000 0.000000 0.000000
vn 0.000000 0.000000 0.000000
vn 0.000000 0.000000 0.000000
vn 0.000000 0.000000 0.000000
vn 0.053700 0.997112 -0.053700
vn -0.053700 0.997112 -0.053700
vn -0.053700 0.997112 0.053700
vn 0.053700 0.997112 0.053700
vn 0.000000 0.000000 0.000000
vn 0.000000 0.000000 0.000000
vn 0.000000 0.000000 0.000000
vn 0.000000 0.000000 0.000000
vn 0.000000 -1.000000 0.000000
vn -0.000000 -1.000000 0.000000
vn -0.000000 -1.000000 -0.000000
vn 0.000000 -1.000000 -0.000000
vn 0.000000 0.000000 0.000000
vn 0.000000 0.000000 0.000000
vn 0.000000 0.000000 0.000000
vn 0.000000 0.000000 0.000000
vn 0.000000 0.000000 0.000000
vn 0.000000 0.000000 0.000000
vn 0.000000 0.000000 0.000000
vn 0.000000 0.000000 0.000000
vn -0.000000 -1.000000 -0.000000
vn 0.000000 -1.000000 -0.000000
vn 0.000000 0.928477 -0.371390
vn 0.000000 0.928477 -0.371390
vn 0.000000 0.928477 0.371390
vn 0.000000 0.928477 0.371390
vn 0.000000 -1.000000 0.000000
vn -0.000000 -1.000000 0.000000
vn -0.371390 0.928477 0.000000
vn -0.371390 0.928477 0.000000
vn 0.371390 0.928477 0.000000
vn 0.371390 0.928477 0.000000
vn -0.000000 -1.000000 -0.000000
vn 0.000000 -1.000000 -0.000000
vn 0.000000 0.901523 0.432731
vn 0.000000 0.901523 0.432731
vn 0.000000 0.901523 0.432731
vn 0.000000 0.901523 0.432731
vn 0.000000 0.901523 -0.432731
vn 0.000000 0.901523 -0.432731
vn 0.000000 0.901523 -0.432731
vn 0.000000 0.901523 -0.432731
vn 0.000000 -1.000000 0.000000
vn -0.000000 -1.000000 0.000000
vn 0.432731 0.901523 -0.000000
vn 0.432731 0.901523 -0.000000
vn 0.432731 0.901523 -0.000000
vn 0.432731 0.901523 -0.000000
vn -0.432731 0.901523 -0.000000
vn -0.432731 0.901523 -0.000000
vn -0.432731 0.901523 -0.000000
vn -0.432731 0.901523 -0.000000
s off
g charging
usemtl initialShadingGroup
f 17/27/1 18/28/2 19/29/3 20/30/4
s 1
usemtl aiStandardSurface1SG
f 3/3/5 4/4/6 6/6/7 5/5/8
s off
usemtl initialShadingGroup
f 21/31/9 22/32/10 23/33/11 24/34/12
s 2
f 7/7/13 8/8/14 2/10/15 1/9/16
s off
f 18/28/17 23/35/18 22/36/19 19/29/20
f 24/37/21 17/27/22 20/30/23 21/38/24
s 2
f 1/1/16 2/2/15 10/16/25 9/15/26
s 1
f 4/4/6 3/3/5 12/18/27 11/17/28
f 5/5/8 6/6/7 14/20/29 13/19/30
s 2
f 8/8/14 7/7/13 16/22/31 15/21/32
f 2/2/15 8/11/14 15/23/32 10/16/25
s 1
f 6/12/7 4/4/6 11/17/33 14/24/34
s 2
f 7/13/13 1/1/16 9/15/26 16/25/31
s 1
f 3/3/5 5/14/8 13/26/35 12/18/36
s 2
f 9/15/26 10/16/25 18/28/37 17/27/38
s off
f 11/17/39 12/18/40 20/30/41 19/29/42
f 13/19/43 14/20/44 22/32/45 21/31/46
s 2
f 15/21/32 16/22/31 24/34/47 23/33/48
f 10/16/25 15/23/32 23/35/48 18/28/37
s off
f 14/24/49 11/17/50 19/29/51 22/36/52
s 2
f 16/25/31 9/15/26 17/27/38 24/37/47
s off
f 12/18/53 13/26/54 21/38/55 20/30/56
